<svg class="elate-logo" viewBox="0 0 1135 194" xmlns="http://www.w3.org/2000/svg">

  <g>
    <path class="elate-logo__e2" d="M1090.44 156.369V188.34H888.656C888.656 125.4 888.746 65.0638 888.746 1.33451C955.752 1.33451 1022.77 1.34252 1089.51 1.34252C1089.99 1.34252 1090.39 1.73717 1090.39 2.22383V35.5798C1083.48 34.7305 1076.74 33.6652 1069.96 33.1105C1042.73 30.8825 1015.51 31.8998 988.254 30.2292C971.894 29.2278 955.456 29.5332 939.059 29.0825C935.404 28.9798 933.927 29.8038 933.959 33.8972C934.055 46.2038 933.656 70.2399 933.602 79.5412C933.59 81.5425 935.228 83.1745 937.23 83.1745C972.302 83.1759 959.938 83.2132 997.966 83.2132C1004.91 83.2132 1046.73 83.2132 1072.47 81.4772C1072.47 91.2878 1072.47 99.3452 1072.47 109.932C1049.58 108.669 1010.81 107.932 997.544 107.932C954.103 107.932 982.844 108.047 939.526 108.047C933.615 107.925 933.548 108.101 933.618 114.061C933.779 127.911 934.083 141.759 934.158 155.607C934.176 159.171 935.314 160.901 939.059 160.764C968.023 160.764 976.455 160.789 1005.04 160.764C1041.33 160.789 1064.66 159.145 1090.44 156.369" fill="#231F20"/>
    <path class="elate-logo__t1" d="M860.977 1.36444V33.0924C860.977 33.1124 860.958 33.1284 860.938 33.1258C831.726 29.9138 832.478 29.9391 772.716 29.9405C771.201 29.9405 769.944 31.1818 769.928 32.6978C769.33 84.6164 768.914 136.322 771.894 188.323C771.896 188.342 771.881 188.356 771.864 188.356H723.64C723.622 188.356 723.608 188.342 723.608 188.323C726.285 135.434 725.572 98.8605 726.106 55.9351C726.184 48.3591 725.929 40.8084 726.005 33.2324C726.03 30.5018 725.189 30.0431 722.357 30.0684C698.862 30.4004 677.026 30.1458 654.374 31.5991C651.116 31.8284 647.808 32.1338 644.448 32.4898C644.434 32.4911 644.421 32.4831 644.416 32.4711C639.33 20.2991 631.134 9.57644 621.948 1.59644C621.844 1.50711 621.905 1.34045 622.044 1.34045C628.072 1.34045 692.614 1.34312 746.948 1.34312H860.956C860.968 1.34312 860.977 1.35244 860.977 1.36444Z" fill="#231F20"/>
    <path class="elate-logo__a1" d="M586.951 126.671C586.898 131.964 587.214 139.147 583.213 141.874C567.817 152.374 527.518 167.396 502.462 169.758C494.121 170.542 486.103 170.296 479.519 167.747C462.098 160.999 456.553 149.971 456.553 134.59C456.553 125.347 460.813 118.092 469.238 112.948C484.79 103.456 506.614 100.044 522.235 98.7082C532.002 97.8722 552.909 97.1082 565.822 97.1082C573.433 97.1082 581.977 98.1269 583.979 100.135C586.045 102.207 587.045 105.071 586.951 108.647C586.827 113.222 586.951 126.671 586.951 126.671ZM629.922 126.676C629.541 118.587 629.331 110.39 629.129 102.462L629.121 102.171C628.879 92.5669 628.627 82.6375 628.065 72.8509C627.129 56.5909 622.837 43.4589 614.946 32.7029C603.838 17.5696 587.207 8.07356 564.103 3.67223C549.674 0.920228 535.171 -0.418462 519.765 -0.418462C512.621 -0.418462 505.182 -0.11977 497.655 0.473563C469.586 2.6789 443.243 9.42422 416.466 20.5269C416.466 36.0255 416.41 42.8695 416.41 57.9269C419.314 55.8935 422.085 53.8935 425.187 52.1149C450.859 37.4029 478.979 29.9416 508.766 29.9416C514.158 29.9416 529.698 30.1895 535.193 30.6789C549.186 31.9229 559.669 35.7656 568.183 42.7749C581.513 53.7549 584.254 65.3442 585.773 79.9242C585.773 79.9242 586.778 84.4802 584.526 86.0109C580.502 88.7469 563.386 88.5242 562.813 88.5389C554.429 88.7442 546.053 88.6029 537.677 88.7589C518.014 89.1202 498.173 90.3042 477.943 93.8096C456.553 97.5149 442.793 100.842 427.211 111.835C415.913 119.807 408.401 130.907 407.435 144.094C406.465 157.319 412.13 169.864 422.975 178.512C431.729 185.488 442.59 189.879 457.153 192.33C464.815 193.618 472.521 194.27 480.054 194.27C490.529 194.27 500.914 193.012 510.926 190.532C530.985 185.566 582.871 152.294 583.278 151.928L588.715 148.419C588.715 148.419 592.189 174.692 604.285 188.318C621.677 188.318 638.473 188.227 638.473 188.227C633.779 170.358 631.053 150.684 629.922 126.676Z" fill="#231F20"/>
    <path class="elate-logo__l1" d="M382.01 157.739C383.834 169.404 388.319 178.926 394.93 188.35H232.528V2.16028H278.81C276.378 54.2936 275.694 106.959 277.138 160.535C312.247 160.154 347.128 160.512 382.01 157.739Z" fill="#231F20"/>
    <path class="elate-logo__e1" d="M201.893 156.369V188.34H0.105469C0.105469 125.4 0.196126 65.0638 0.196126 1.33451C67.2015 1.33451 134.221 1.34252 200.955 1.34252C201.441 1.34252 201.836 1.73717 201.836 2.22383V35.5798C194.935 34.7305 188.193 33.6652 181.411 33.1105C154.184 30.8825 126.965 31.8998 99.7028 30.2292C83.3441 29.2278 66.9068 29.5332 50.5095 29.0825C46.8535 28.9798 45.3775 29.8038 45.4095 33.8972C45.5055 46.2038 45.1055 70.2399 45.0508 79.5412C45.0401 81.5425 46.6788 83.1745 48.6801 83.1745C83.7521 83.1759 71.3868 83.2132 109.416 83.2132C116.359 83.2132 158.185 83.2132 183.925 81.4772C183.925 91.2878 183.923 99.3452 183.923 109.932C161.031 108.669 122.256 107.932 108.993 107.932C65.5521 107.932 94.2948 108.047 50.9761 108.047C45.0655 107.925 44.9988 108.101 45.0681 114.061C45.2295 127.911 45.5335 141.759 45.6068 155.607C45.6268 159.171 46.7641 160.901 50.5095 160.764C79.4735 160.764 87.9054 160.789 116.491 160.764C152.785 160.789 176.113 159.145 201.893 156.369Z" fill="#231F20"/>
    <path class="elate-logo__copy" d="M1123.17 9.46996C1122.47 9.07929 1121.35 8.88327 1119.81 8.88327H1117.44V14.5873H1119.95C1121.12 14.5873 1122.01 14.47 1122.59 14.2353C1123.68 13.806 1124.22 12.9846 1124.22 11.774C1124.22 10.6286 1123.87 9.86062 1123.17 9.46996V9.46996ZM1120.18 6.98861C1122.13 6.98861 1123.56 7.17794 1124.47 7.55527C1126.1 8.23394 1126.91 9.56326 1126.91 11.5446C1126.91 12.9513 1126.4 13.9873 1125.38 14.6526C1124.83 15.0046 1124.08 15.2593 1123.1 15.4153C1124.33 15.6099 1125.23 16.1246 1125.81 16.9566C1126.38 17.7899 1126.66 18.6019 1126.66 19.3953V20.5459C1126.66 20.9113 1126.67 21.3006 1126.7 21.7166C1126.73 22.1339 1126.77 22.406 1126.84 22.5366L1126.93 22.7313H1124.34C1124.32 22.6793 1124.31 22.6273 1124.3 22.5753C1124.28 22.5246 1124.27 22.466 1124.26 22.4006L1124.2 21.8939V20.6473C1124.2 18.8313 1123.71 17.6299 1122.71 17.0459C1122.13 16.7086 1121.1 16.5393 1119.63 16.5393H1117.44V22.7313H1114.67V6.98861H1120.18ZM1111.74 6.18861C1109.34 8.59661 1108.15 11.5073 1108.15 14.9193C1108.15 18.3566 1109.34 21.286 1111.72 23.7073C1114.11 26.13 1117.03 27.3406 1120.45 27.3406C1123.87 27.3406 1126.78 26.13 1129.18 23.7073C1131.57 21.286 1132.77 18.3566 1132.77 14.9193C1132.77 11.5073 1131.57 8.59661 1129.18 6.18861C1126.77 3.76594 1123.86 2.55528 1120.45 2.55528C1117.05 2.55528 1114.15 3.76594 1111.74 6.18861V6.18861ZM1130.61 25.0753C1127.81 27.8873 1124.42 29.2939 1120.45 29.2939C1116.48 29.2939 1113.1 27.8873 1110.31 25.0753C1107.54 22.2753 1106.15 18.8833 1106.15 14.8993C1106.15 10.954 1107.55 7.58193 1110.35 4.78194C1113.14 1.99527 1116.5 0.601955 1120.45 0.601955C1124.42 0.601955 1127.81 1.99527 1130.61 4.78194C1133.4 7.5686 1134.8 10.9406 1134.8 14.8993C1134.8 18.87 1133.4 22.262 1130.61 25.0753" fill="#231F20"/>
  </g>

</svg>