<?xml version="1.0" encoding="UTF-8"?>
<svg id="a" data-name="Layer 1" xmlns="http://www.w3.org/2000/svg" width="600" height="550" viewBox="0 0 600 550">
  <g id="b" data-name="Artwork 9">
    <g>
      <path d="m176.219,448.98v-51.861c0-20.94-8.147-30.694-25.639-30.694-13.95,0-26.582,6.77-35.673,19.089-3.123-13.016-11.083-19.089-24.98-19.089-14.222,0-26.774,6.605-35.45,18.627v-20.762l-21.614,12.588v1.337l.36.239c4.437,2.958,9.531,7.502,9.531,16.469v54.277c0,11.028-.74,17.562-4.948,24.868l-.107.188v1.463h22.492v-1.473l-.118-.194c-4.399-7.258-4.717-14.314-4.717-25.072v-58.351c5.773-6.089,14.993-14.017,28.858-14.017,16.671,0,18.97,10.913,18.97,22.704v49.884c0,11.286-.706,17.887-4.727,24.868l-.108.188v1.463h22.492v-1.482l-.126-.199c-4.462-7.011-4.927-13.019-4.927-25.057v-57.913c5.949-6.277,15.378-14.455,29.078-14.455,16.521,0,18.748,11.477,18.748,22.704v49.884c0,10.509-.755,17.588-4.735,24.885l-.099.181v1.453h22.272v-1.473l-.116-.194c-4.271-7.046-4.717-13.05-4.717-25.072" fill="#000f2a"/>
      <path d="m275.766,450.518v-80.795h-22.274v1.762l.467.218c6.107,2.835,9.203,7.321,9.203,13.331v70.43c-8.692,8.868-18.842,13.364-30.177,13.364-15.042,0-22.046-7.913-22.046-24.902v-74.203h-21.834v1.738l.436.226c4.011,2.087,8.794,6.096,8.794,13.348v62.409c0,19.77,11.23,31.572,30.035,31.572,13.731,0,25.492-5.933,35.89-18.123v17.801l21.394-7.607v-1.537l-.485-.212c-6.521-2.853-9.403-4.709-9.403-18.819" fill="#000f2a"/>
      <path d="m334.799,413.946l-1.368-.527c-14.54-5.595-26.023-10.014-26.023-22.891,0-10.91,9.337-18.53,22.705-18.53,12.172,0,20.05,5.666,27.19,19.56l.293.571,3.067-.768-2.331-20.756-.467-.173c-6.776-2.509-15.751-4.006-24.015-4.006-34.394,0-37.067,21.643-37.067,28.278,0,20.079,18.464,27.073,31.945,32.18,15.906,6.025,27.167,11.341,27.167,24.956,0,13.124-10.121,21.605-25.782,21.605-15.111,0-24.613-7.408-31.776-24.771l-.267-.645-3.112.778,2.312,23.561.409.199c6.238,3.003,15.211,6.451,29.356,6.451,25.093,0,39.485-11.267,39.485-30.914,0-21.918-18.334-28.99-31.722-34.155" fill="#000f2a"/>
      <path d="m424.389,371.998c16.526,0,24.902,10.596,24.902,31.494v.529l-59.096,1.279c3.87-21.181,16.291-33.302,34.194-33.302m38.421,77.667c-7.751,12.997-23.454,17.626-35.565,17.626-23.987,0-38.308-17.853-38.308-47.756,0-3.286.194-6.485.558-9.301h75.202l.053-.75c.818-11.571-3.026-22.838-10.551-30.911-7.404-7.947-17.484-12.146-29.152-12.146-28.397,0-49.811,24.909-49.811,57.944,0,32.686,19.311,54.646,48.054,54.646,20.15,0,36.274-10.821,42.081-28.24l.239-.724-2.447-.978-.352.592Z" fill="#000f2a"/>
      <path d="m525.916,371.998c16.524,0,24.902,10.596,24.902,31.494v.529l-59.098,1.279c3.872-21.181,16.293-33.302,34.196-33.302m38.774,77.075l-.354.592c-7.751,12.997-23.452,17.626-35.565,17.626-23.987,0-38.306-17.853-38.306-47.756,0-3.278.192-6.476.558-9.301h75.2l.055-.75c.816-11.571-3.028-22.838-10.551-30.911-7.404-7.947-17.484-12.146-29.152-12.146-28.397,0-49.811,24.909-49.811,57.944,0,32.686,19.311,54.646,48.054,54.646,20.15,0,36.274-10.821,42.079-28.24l.241-.724-2.447-.978Z" fill="#000f2a"/>
      <path d="m369.096,206.045v-88.02l-6.89,4.132c-.845.509-20.979,12.706-41.368,35.133-8.097,8.907-15.058,18.168-20.838,27.683-5.782-9.515-12.743-18.776-20.84-27.683-20.389-22.427-40.523-34.624-41.368-35.133l-6.89-4.132v88.02c-10.624-6.684-21.495-11.238-31.672-13.288-.411-3.703-.63-7.465-.63-11.277,0-55.912,45.489-101.399,101.4-101.399s101.399,45.487,101.399,101.399c0,3.812-.22,7.573-.63,11.277-10.178,2.05-21.049,6.603-31.672,13.288m-11.109,58.568c-10.934,7.649-23.439,13.199-36.926,16.06.044-.129.086-.26.131-.39,6.759-19.34,18.698-37.619,34.175-52.115,1.52-1.423,3.062-2.798,4.623-4.127,2.976-2.535,6.02-4.895,9.106-7.064,9.95-6.996,20.313-12.016,30.117-14.536-5.401,25.596-20.484,47.66-41.226,62.171m-52.81-70.444c6.814-12.116,14.812-22.398,22.217-30.567,12.486-13.773,25.098-23.656,32.603-29.013v77.756c-15.192,11.513-29.277,27.35-39.322,46.368.006-1.188.008-2.376.008-3.56,0-20.711-5.284-41.31-15.507-60.984m6.393,65.643c-3.304-2.239-7.289-3.55-11.573-3.55s-8.267,1.309-11.571,3.548c-.016-1.549-.016-3.107-.016-4.657,0-18.947,4.727-36.042,11.589-50.872,6.864,14.835,11.587,31.924,11.587,50.872,0,1.55,0,3.11-.016,4.659m-1.337,22.554c-1.948,3.666-5.803,6.17-10.236,6.17s-8.289-2.504-10.237-6.17c-.86-1.618-1.351-3.461-1.351-5.417,0-1.604.328-3.131.92-4.521,1.765-4.15,5.882-7.067,10.669-7.067s8.905,2.919,10.671,7.071c.59,1.39.917,2.916.917,4.518,0,1.956-.491,3.799-1.351,5.417m-30.921-27.212c0,1.183.002,2.371.008,3.56-10.045-19.018-24.13-34.855-39.322-46.368v-77.762c7.46,5.322,19.97,15.122,32.427,28.826,7.468,8.213,15.533,18.561,22.393,30.761-10.223,19.675-15.507,40.274-15.507,60.984m-37.303,9.46c-20.741-14.511-35.825-36.575-41.226-62.171,9.804,2.52,20.168,7.539,30.117,14.536,3.086,2.169,6.13,4.529,9.106,7.064,1.562,1.329,3.104,2.704,4.623,4.127,15.476,14.495,27.416,32.775,34.175,52.115.045.129.087.26.131.39-13.487-2.861-25.992-8.411-36.926-16.06m57.989-193.629c-60.928,0-110.496,49.569-110.496,110.496,0,55.757,41.515,101.994,95.258,109.441.428.058.875.121,0,0,3.784,4.122,9.212,6.712,15.237,6.712s11.451-2.59,15.236-6.712c-.158.021-.317.044-.412.057-.128.018-.103.015,0,0,.076-.01.205-.027.412-.057,53.744-7.446,95.261-53.683,95.261-109.441,0-60.928-49.569-110.496-110.495-110.496" fill="#000f2a"/>
    </g>
  </g>
</svg>