<svg viewBox="0 0 1049.01 300" xmlns="http://www.w3.org/2000/svg" id="Layer_2"><defs><style>.cls-1{fill:#1ae0f7;}</style></defs><g id="Layer_1-2"><path d="M356.42,92.7v34.69c0,2.74-.51,4.56-1.52,5.45s-3.07,1.34-6.17,1.34h-13.59c-3.1,0-5.16-.45-6.17-1.34-1.01-.89-1.52-2.71-1.52-5.45V13.66c0-2.74.5-4.56,1.52-5.45,1.01-.9,3.07-1.34,6.17-1.34h36.3c15.74,0,27.12,3.19,34.16,9.56,7.03,6.38,10.55,16.66,10.55,30.85v6.26c0,26.11-14.9,39.16-44.71,39.16h-15.02ZM356.42,67.84h12.7c6.08,0,10.52-1.22,13.32-3.67,2.8-2.44,4.2-6.28,4.2-11.54v-4.47c0-5.72-1.37-9.89-4.11-12.52-2.74-2.62-7.21-3.93-13.41-3.93h-12.7v36.12Z" class="cls-1"></path><path d="M515.04,126.32c0,3.22-.45,5.34-1.34,6.34-.89,1.01-2.65,1.52-5.27,1.52h-67.06c-3.1,0-5.16-.45-6.17-1.34-1.01-.89-1.52-2.71-1.52-5.45V13.66c0-2.74.5-4.56,1.52-5.45,1.01-.9,3.07-1.34,6.17-1.34h66.35c2.62,0,4.38.5,5.28,1.52.89,1.01,1.34,3.13,1.34,6.35v10.01c0,3.22-.45,5.34-1.34,6.34-.9,1.01-2.66,1.52-5.28,1.52h-44.71v23.6h40.06c2.62,0,4.38.51,5.27,1.52.9,1.01,1.34,3.13,1.34,6.34v9.3c0,3.22-.45,5.34-1.34,6.34-.89,1.02-2.65,1.52-5.27,1.52h-40.06v27.18h45.42c2.62,0,4.38.5,5.27,1.52.9,1.01,1.34,3.13,1.34,6.35v10.01Z" class="cls-1"></path><path d="M564.57,90.02v37.38c0,2.74-.51,4.56-1.52,5.45-1.02.89-3.07,1.34-6.17,1.34h-13.41c-3.1,0-5.16-.45-6.17-1.34-1.01-.89-1.52-2.71-1.52-5.45V13.66c0-2.74.5-4.56,1.52-5.45,1.01-.9,3.07-1.34,6.17-1.34h41.67c14.07,0,24.44,3.16,31.12,9.48,6.68,6.32,10.01,16.15,10.01,29.5v5.19c0,16.7-6.32,28.14-18.96,34.34l23.25,42.03c.6.95.9,1.97.9,3.04,0,2.51-2.03,3.76-6.08,3.76h-17.35c-2.62,0-4.59-.45-5.9-1.34-1.31-.89-2.62-2.71-3.93-5.45l-18.24-37.38h-15.38ZM564.57,65.52h15.74c10.97,0,16.45-4.95,16.45-14.85v-4.29c0-9.78-5.49-14.66-16.45-14.66h-15.74v33.79Z" class="cls-1"></path><path d="M677.41,83.76v43.64c0,2.74-.51,4.56-1.52,5.45-1.01.89-3.07,1.34-6.17,1.34h-13.95c-3.1,0-5.16-.45-6.17-1.34-1.01-.89-1.52-2.71-1.52-5.45V13.66c0-2.74.5-4.56,1.52-5.45,1.01-.9,3.07-1.34,6.17-1.34h65.99c2.62,0,4.38.5,5.28,1.52.9,1.01,1.34,3.13,1.34,6.35v10.01c0,3.22-.45,5.34-1.34,6.34-.89,1.01-2.65,1.52-5.28,1.52h-44.35v26.11h39.7c2.62,0,4.38.51,5.28,1.52.89,1.01,1.34,3.13,1.34,6.35v9.3c0,3.22-.45,5.34-1.34,6.35-.9,1.01-2.66,1.52-5.28,1.52h-39.7Z" class="cls-1"></path><path d="M827.26,126.32c0,3.22-.45,5.34-1.34,6.34-.89,1.01-2.65,1.52-5.27,1.52h-67.06c-3.1,0-5.16-.45-6.17-1.34-1.01-.89-1.52-2.71-1.52-5.45V13.66c0-2.74.5-4.56,1.52-5.45,1.01-.9,3.07-1.34,6.17-1.34h66.35c2.62,0,4.38.5,5.28,1.52.89,1.01,1.34,3.13,1.34,6.35v10.01c0,3.22-.45,5.34-1.34,6.34-.9,1.01-2.66,1.52-5.28,1.52h-44.71v23.6h40.06c2.62,0,4.38.51,5.27,1.52.9,1.01,1.34,3.13,1.34,6.34v9.3c0,3.22-.45,5.34-1.34,6.34-.89,1.02-2.65,1.52-5.27,1.52h-40.06v27.18h45.42c2.62,0,4.38.5,5.27,1.52.9,1.01,1.34,3.13,1.34,6.35v10.01Z" class="cls-1"></path><path d="M911.49,94.67c.36-2.26,1.1-3.81,2.23-4.65,1.13-.83,3.07-1.25,5.81-1.25h13.95c3.1,0,5.12.48,6.08,1.43.95.96,1.43,2.93,1.43,5.9,0,6.8-1.19,12.85-3.58,18.15-2.39,5.31-5.84,9.68-10.37,13.15-8.22,6.44-19.43,9.65-33.62,9.65-19.55,0-33.2-6.38-40.95-19.13-5.13-8.46-7.69-19.85-7.69-34.16v-24.68c0-14.19,2.56-25.63,7.69-34.34,8.11-13.83,22.35-20.75,42.74-20.75,13.47,0,24.08,2.98,31.83,8.94,9.3,6.92,13.95,17.29,13.95,31.12,0,3.22-.48,5.31-1.43,6.26-.96.95-3.04,1.43-6.26,1.43h-12.7c-3.34,0-5.6-.56-6.79-1.7-1.19-1.13-2.03-3.42-2.5-6.89-1.55-9.41-7.27-14.12-17.17-14.12-7.04,0-12.07,2.14-15.11,6.44-3.04,4.29-4.56,11.33-4.56,21.1v27.9c0,9.9,1.49,16.96,4.47,21.19,2.98,4.23,7.93,6.35,14.84,6.35,5.6,0,9.75-1.28,12.43-3.85,2.68-2.56,4.44-7.06,5.28-13.5Z" class="cls-1"></path><path d="M984.81,32.97h-28.25c-2.74,0-4.53-.51-5.37-1.52-.83-1.01-1.25-3.13-1.25-6.34v-10.37c0-3.22.42-5.34,1.25-6.35.83-1.01,2.62-1.52,5.37-1.52h85.84c2.74,0,4.53.5,5.36,1.52.83,1.01,1.25,3.13,1.25,6.35v10.37c0,3.22-.42,5.34-1.25,6.34-.83,1.01-2.62,1.52-5.36,1.52h-28.25v94.42c0,2.74-.51,4.56-1.52,5.45-1.01.89-3.07,1.34-6.17,1.34h-13.95c-3.1,0-5.16-.45-6.17-1.34-1.01-.89-1.52-2.71-1.52-5.45V32.97Z" class="cls-1"></path><path d="M350.87,262.03c1.15,5.12,3.65,8.97,7.48,11.54,3.84,2.56,9.28,3.84,16.31,3.84,8.06,0,13.88-1.37,17.47-4.11,3.58-2.74,5.37-7.09,5.37-13.05,0-4.77-1.47-8.68-4.41-11.72-2.95-3.04-7.68-5.51-14.2-7.42l-20.34-5.9c-9.47-2.74-16.73-6.97-21.78-12.7-5.06-5.72-7.58-12.52-7.58-20.39v-1.61c0-11.92,4.09-21.16,12.28-27.72,8.18-6.55,19.7-9.84,34.54-9.84,16.12,0,28.08,4,35.89,11.99,5.37,5.72,8.06,12.64,8.06,20.74,0,1.91-.42,3.19-1.25,3.84-.83.66-2.47.98-4.89.98h-10.94c-2.43,0-4.03-.29-4.8-.89-.77-.6-1.28-1.79-1.53-3.58-1.15-9.78-8.64-14.66-22.45-14.66s-21.11,5.9-21.11,17.7c0,4.77,1.37,8.43,4.13,11,2.75,2.57,7.9,4.92,15.45,7.06l20.34,5.9c9.72,2.74,16.98,7.07,21.78,12.97,4.8,5.9,7.2,13.08,7.2,21.55v2.33c0,11.56-4.03,20.47-12.09,26.73-8.06,6.26-19.45,9.39-34.16,9.39-17.4,0-30.13-3.76-38.19-11.27-6.66-6.44-9.98-13.89-9.98-22.35,0-1.91.41-3.19,1.25-3.84.83-.66,2.46-.98,4.89-.98h10.74c2.3,0,3.87.3,4.7.89.83.6,1.44,1.79,1.82,3.58Z" class="cls-1"></path><path d="M520.44,171.01v116.95c0,2.14-.37,3.55-1.1,4.2-.73.66-2.17.98-4.3.98h-9.79c-2.14,0-3.57-.33-4.3-.98-.73-.66-1.1-2.06-1.1-4.2v-51.86h-45.58v51.86c0,2.14-.37,3.55-1.1,4.2-.73.66-2.17.98-4.3.98h-9.79c-2.14,0-3.57-.33-4.3-.98-.73-.66-1.1-2.06-1.1-4.2v-116.95c0-2.15.36-3.55,1.1-4.2.73-.66,2.17-.98,4.3-.98h9.79c2.13,0,3.57.33,4.3.98.73.66,1.1,2.05,1.1,4.2v45.78h45.58v-45.78c0-2.15.36-3.55,1.1-4.2.73-.66,2.16-.98,4.3-.98h9.79c2.14,0,3.57.33,4.3.98.73.66,1.1,2.05,1.1,4.2Z" class="cls-1"></path><path d="M597.66,169.04l39.7,118.92c.24.95.36,1.61.36,1.97,0,2.14-1.31,3.22-3.93,3.22h-12.52c-2.26,0-3.72-.33-4.38-.98s-1.34-2.06-2.06-4.2l-8.23-25.22h-46.85l-8.05,25.39c-.71,2.15-1.4,3.52-2.06,4.11-.66.6-2.12.9-4.38.9h-11.8c-2.62,0-3.93-1.07-3.93-3.22,0-.36.12-1.01.36-1.97l40.24-118.92c.47-1.43,1.13-2.33,1.97-2.68.83-.36,2.08-.53,3.76-.53h16.09c1.67,0,2.92.18,3.76.53.83.36,1.49,1.25,1.97,2.68ZM582.99,189.78l-17.35,54.37h34.87l-17.53-54.37Z" class="cls-1"></path><path d="M732.65,171.01l-35.7,45.78,38.95,71.17c.46.95.68,1.72.68,2.33,0,1.91-1.48,2.86-4.44,2.86h-13.32c-1.82,0-3.19-.33-4.1-.98-.91-.66-1.94-2.06-3.07-4.2l-28.87-53.47-14.18,16.81v36.66c0,2.03-.34,3.39-1.03,4.11-.68.72-2.16,1.07-4.44,1.07h-9.57c-2.28,0-3.76-.36-4.44-1.07-.68-.72-1.03-2.08-1.03-4.11v-116.95c0-2.03.34-3.4,1.03-4.12.68-.71,2.16-1.07,4.44-1.07h9.57c2.28,0,3.76.36,4.44,1.07.68.72,1.03,2.09,1.03,4.12v52.22l39.81-52.22c1.93-2.39,3.25-3.84,3.93-4.38.68-.53,1.82-.8,3.42-.8h14.35c2.28,0,3.42.95,3.42,2.86,0,.83-.29,1.61-.86,2.33Z" class="cls-1"></path><path d="M827.26,279.55v7.87c0,2.26-.34,3.79-1.02,4.56-.68.78-2.14,1.17-4.37,1.17h-70.03c-2.35,0-3.93-.33-4.74-.98-.81-.66-1.21-2.06-1.21-4.2v-116.95c0-2.15.4-3.55,1.21-4.2.8-.66,2.38-.98,4.74-.98h69.29c2.23,0,3.68.39,4.36,1.16.68.78,1.02,2.3,1.02,4.56v7.87c0,2.26-.34,3.79-1.02,4.56-.68.78-2.14,1.16-4.36,1.16h-52.57v32.91h47.74c2.23,0,3.68.39,4.36,1.16.68.78,1.02,2.3,1.02,4.56v7.87c0,2.26-.34,3.79-1.02,4.56-.68.78-2.14,1.17-4.36,1.17h-47.74v36.48h53.31c2.23,0,3.68.39,4.37,1.16.68.78,1.02,2.3,1.02,4.56Z" class="cls-1"></path><path d="M888.51,243.43h-19.49v44.53c0,2.03-.36,3.39-1.07,4.11-.71.72-2.26,1.07-4.65,1.07h-10.02c-2.39,0-3.93-.36-4.65-1.07-.72-.72-1.07-2.08-1.07-4.11v-116.95c0-2.03.36-3.4,1.07-4.12.71-.71,2.26-1.07,4.65-1.07h38.27c14.07,0,24.41,2.98,31.03,8.94,6.62,5.96,9.92,15.38,9.92,28.26v3.39c0,18.12-7.21,29.57-21.64,34.34l26.65,47.21c.48.95.72,1.72.72,2.33,0,1.91-1.55,2.86-4.65,2.86h-13.41c-1.91,0-3.34-.33-4.29-.98-.96-.66-2.03-2.06-3.22-4.2l-24.14-44.53ZM869.02,184.42v40.41h22.35c6.91,0,11.8-1.43,14.66-4.29,2.86-2.86,4.29-7.63,4.29-14.3v-2.5c0-7.04-1.4-12.01-4.2-14.94-2.8-2.92-7.72-4.38-14.75-4.38h-22.35Z" class="cls-1"></path><path d="M150,0C67.16,0,0,67.16,0,150s67.16,150,150,150,150-67.16,150-150S232.84,0,150,0ZM240.79,105.81l-27.81,48.16c-6.81,11.62-8.67,12.52-27.07,12.59l-33.46.07c-7.95.02-9.39,1.39-5.43,8.82l21.37,40.11c4.1,8.53,2.08,12.03-7.76,29.07l-7.02,12.16-19.29-33.42-31.15-53.95c-8.05-13.95,3.93-36.67,22.35-36.41l43.16.16c17.73-.01,17.98-.45,26.03-14.39h-97.15c-23.62,0-23.76-.24-32.59-15.55l-10.32-17.87h176.05c17.51-.17,17.19,7.32,10.1,20.43Z" class="cls-1"></path></g></svg>